<svg xmlns="http://www.w3.org/2000/svg" viewBox="0 0 320 180" width="100%" height="100%" fill="none">
  <defs>
    <linearGradient id="prBg" x1="0" y1="0" x2="320" y2="180" gradientUnits="userSpaceOnUse">
      <stop stop-color="#FAF5FF"/>
      <stop offset="1" stop-color="#F3E8FF"/>
    </linearGradient>
  </defs>
  <rect width="320" height="180" rx="16" fill="url(#prBg)"/>

  <!-- Concentric Calming Prana Rings -->
  <circle cx="160" cy="85" r="50" stroke="#E9D5FF" stroke-width="1.5"/>
  <circle cx="160" cy="85" r="38" stroke="#D8B4FE" stroke-width="2"/>
  <circle cx="160" cy="85" r="26" stroke="#C084FC" stroke-width="2.5"/>
  
  <!-- Lotus Petal Center -->
  <path d="M160 68C154 77 154 85 160 92C166 85 166 77 160 68Z" fill="#9333EA"/>
  <path d="M148 76C147 84 153 90 160 92C154 86 152 79 148 76Z" fill="#A855F7"/>
  <path d="M172 76C173 84 167 90 160 92C166 86 168 79 172 76Z" fill="#A855F7"/>

  <!-- Bilateral / Anulom Vilom Balance Arrows -->
  <path d="M120 85C120 70 135 60 150 60" stroke="#7E22CE" stroke-width="2" stroke-linecap="round" stroke-dasharray="3 3"/>
  <path d="M200 85C200 70 185 60 170 60" stroke="#7E22CE" stroke-width="2" stroke-linecap="round" stroke-dasharray="3 3"/>

  <text x="160" y="165" text-anchor="middle" font-family="'Inter', sans-serif" font-size="11" font-weight="600" fill="#6B21A8" letter-spacing="1">PRANAYAMA · NERVOUS SYSTEM BALANCE</text>
</svg>
